<svg fill="#F5F2EA" role="img" viewBox="0 0 48 48" xmlns="http://www.w3.org/2000/svg"><title>Dead by Daylight</title><path d="M8.2 42.8 12.7 5.3h6.7l-4.5 37.5H8.2Zm8.7 0 4.5-37.5h6.7l-4.5 37.5h-6.7Zm8.7 0 4.5-37.5h6.7l-4.5 37.5h-6.7Zm8.7 0 4.5-37.5h6.7L41 42.8h-6.7Z"/><path d="M5.4 29.4c9.4-2.5 21.5-3.2 36.4-2.1l1 6.9c-14.2-1.3-27.1-.5-38.6 2.3l1.2-7.1Z"/><path d="M11.1 8.6 15.2 3h5.9l-3.4 5.6h-6.6Zm8.7 0L23.9 3h5.9l-3.4 5.6h-6.6Zm8.7 0L32.6 3h5.9l-3.4 5.6h-6.6Zm8.7 0L41.3 3h4.9l-2.5 5.6h-6.5Z"/></svg>
